<?xml version="1.0" encoding="UTF-8"?>
<!DOCTYPE svg PUBLIC "-//W3C//DTD SVG 1.1//EN" "http://www.w3.org/Graphics/SVG/1.1/DTD/svg11.dtd">
<svg xmlns="http://www.w3.org/2000/svg" xmlns:xlink="http://www.w3.org/1999/xlink" viewBox="0 0 600 360">
  <g id="scruffy_graph">
    <g id="background" transform="translate(0.0, 0.0)">
      <defs>
        <linearGradient id="BackgroundGradient" x1="0%" y1="0%" x2="0%" y2="100%">
          <stop offset="5%" stop-color="black"/>
          <stop offset="95%" stop-color="#4A465A"/>
        </linearGradient>
      </defs>
      <rect width="600.0" height="360.0" x="0" y="0" fill="url(#BackgroundGradient)"/>
    </g>
    <g id="title" transform="translate(30.0, 7.2)">
      <text class="title" x="270.0" y="25.200000000000003" font-size="25.200000000000003" font-family="" fill="white" stroke="none" stroke-width="0" text-anchor="middle">Temperature(F) vs Time(hours from now) </text>
    </g>
    <g id="view" transform="translate(12.0, 93.60000000000001)">
      <g>
        <g id="values" transform="translate(0.0, 4.752000000000001)">
          <text x="96.11999999999999" y="211.46400000000003" font-size="16.917120000000004" font-family="" fill="white" text-anchor="end">17</text>
          <text x="96.11999999999999" y="158.598" font-size="16.917120000000004" font-family="" fill="white" text-anchor="end">22</text>
          <text x="96.11999999999999" y="105.73200000000001" font-size="16.917120000000004" font-family="" fill="white" text-anchor="end">28</text>
          <text x="96.11999999999999" y="52.866000000000014" font-size="16.917120000000004" font-family="" fill="white" text-anchor="end">33</text>
          <text x="96.11999999999999" y="0.0" font-size="16.917120000000004" font-family="" fill="white" text-anchor="end">38</text>
        </g>
        <g id="grid" transform="translate(106.80000000000001, 0.0)">
          <line x1="0" y1="0.0" x2="427.20000000000005" y2="0.0" style="stroke: white; stroke-width: 2;"/>
          <line x1="0" y1="52.86600000000001" x2="427.20000000000005" y2="52.86600000000001" style="stroke: white; stroke-width: 2;"/>
          <line x1="0" y1="105.73200000000001" x2="427.20000000000005" y2="105.73200000000001" style="stroke: white; stroke-width: 2;"/>
          <line x1="0" y1="158.598" x2="427.20000000000005" y2="158.598" style="stroke: white; stroke-width: 2;"/>
          <line x1="0" y1="211.46400000000003" x2="427.20000000000005" y2="211.46400000000003" style="stroke: white; stroke-width: 2;"/>
        </g>
        <g id="labels" transform="translate(106.80000000000001, 218.59200000000004)">
        </g>
        <g id="graphs" transform="translate(106.80000000000001, 0.0)">
          <g id="component_graphs_graph_0" class="graph_layer">
            <g class="shadow" transform="translate(1.0573200000000003, 1.0573200000000003)">
              <polyline points="0.0,0.0 6.016901408450705,10.215652173913043 12.03380281690141,20.431304347826085 18.050704225352113,30.646956521739128 24.06760563380282,40.86260869565217 30.084507042253527,51.07826086956521 36.10140845070423,71.50956521739133 42.118309859154934,81.72521739130437 48.13521126760564,102.15652173913045 54.15211267605635,112.3721739130435 60.169014084507054,102.15652173913045 66.18591549295776,81.72521739130437 72.20281690140845,61.293913043478256 78.21971830985916,51.07826086956521 84.23661971830987,30.646956521739128 90.25352112676057,20.431304347826085 96.27042253521128,30.646956521739128 102.28732394366199,51.07826086956521 108.3042253521127,61.293913043478256 114.3211267605634,81.72521739130437 120.33802816901411,102.15652173913045 126.3549295774648,112.3721739130435 132.37183098591552,122.58782608695654 138.38873239436623,132.80347826086958 144.4056338028169,143.01913043478262 150.42253521126761,132.80347826086958 156.43943661971832,112.3721739130435 162.45633802816903,81.72521739130437 168.47323943661974,51.07826086956521 174.49014084507044,30.646956521739128 180.50704225352115,20.431304347826085 186.52394366197186,10.215652173913043 192.54084507042256,0.0 198.55774647887327,10.215652173913043 204.57464788732398,20.431304347826085 210.59154929577468,30.646956521739128 216.6084507042254,40.86260869565217 222.6253521126761,30.646956521739128 228.6422535211268,40.86260869565217 234.6591549295775,51.07826086956521 240.67605633802822,71.50956521739133 246.6929577464789,81.72521739130437 252.7098591549296,91.94086956521741 258.7267605633803,81.72521739130437 264.74366197183105,61.293913043478256 270.7605633802817,51.07826086956521 276.77746478873246,40.86260869565217 282.79436619718314,30.646956521739128 288.8112676056338,40.86260869565217 294.82816901408455,51.07826086956521 300.84507042253523,61.293913043478256 306.86197183098596,81.72521739130437 312.87887323943664,91.94086956521741 318.8957746478874,102.15652173913045 324.91267605633806,112.3721739130435 330.9295774647888,122.58782608695654 336.94647887323947,132.80347826086958 342.9633802816902,153.23478260869567 348.9802816901409,163.45043478260874 354.9971830985916,173.66608695652178 361.0140845070423,183.88173913043482 367.03098591549303,173.66608695652178 373.0478873239437,153.23478260869567 379.06478873239445,132.80347826086958 385.0816901408451,112.3721739130435 391.0985915492958,81.72521739130437 397.11549295774654,61.293913043478256 403.1323943661972,40.86260869565217 409.14929577464795,20.431304347826085 415.16619718309863,10.215652173913043 421.18309859154937,20.431304347826085 427.20000000000005,30.646956521739128" fill="transparent" stroke="black" stroke-width="4.229280000000001" style="fill-opacity: 0; stroke-opacity: 0.35"/>
              <circle cx="0.0" cy="1.9031760000000004" r="4.229280000000001" style="stroke-width: 4.229280000000001; stroke: black; opacity: 0.35;"/>
              <circle cx="6.016901408450705" cy="12.118828173913043" r="4.229280000000001" style="stroke-width: 4.229280000000001; stroke: black; opacity: 0.35;"/>
              <circle cx="12.03380281690141" cy="22.334480347826087" r="4.229280000000001" style="stroke-width: 4.229280000000001; stroke: black; opacity: 0.35;"/>
              <circle cx="18.050704225352113" cy="32.55013252173913" r="4.229280000000001" style="stroke-width: 4.229280000000001; stroke: black; opacity: 0.35;"/>
              <circle cx="24.06760563380282" cy="42.76578469565217" r="4.229280000000001" style="stroke-width: 4.229280000000001; stroke: black; opacity: 0.35;"/>
              <circle cx="30.084507042253527" cy="52.981436869565215" r="4.229280000000001" style="stroke-width: 4.229280000000001; stroke: black; opacity: 0.35;"/>
              <circle cx="36.10140845070423" cy="73.41274121739133" r="4.229280000000001" style="stroke-width: 4.229280000000001; stroke: black; opacity: 0.35;"/>
              <circle cx="42.118309859154934" cy="83.62839339130437" r="4.229280000000001" style="stroke-width: 4.229280000000001; stroke: black; opacity: 0.35;"/>
              <circle cx="48.13521126760564" cy="104.05969773913046" r="4.229280000000001" style="stroke-width: 4.229280000000001; stroke: black; opacity: 0.35;"/>
              <circle cx="54.15211267605635" cy="114.2753499130435" r="4.229280000000001" style="stroke-width: 4.229280000000001; stroke: black; opacity: 0.35;"/>
              <circle cx="60.169014084507054" cy="104.05969773913046" r="4.229280000000001" style="stroke-width: 4.229280000000001; stroke: black; opacity: 0.35;"/>
              <circle cx="66.18591549295776" cy="83.62839339130437" r="4.229280000000001" style="stroke-width: 4.229280000000001; stroke: black; opacity: 0.35;"/>
              <circle cx="72.20281690140845" cy="63.19708904347826" r="4.229280000000001" style="stroke-width: 4.229280000000001; stroke: black; opacity: 0.35;"/>
              <circle cx="78.21971830985916" cy="52.981436869565215" r="4.229280000000001" style="stroke-width: 4.229280000000001; stroke: black; opacity: 0.35;"/>
              <circle cx="84.23661971830987" cy="32.55013252173913" r="4.229280000000001" style="stroke-width: 4.229280000000001; stroke: black; opacity: 0.35;"/>
              <circle cx="90.25352112676057" cy="22.334480347826087" r="4.229280000000001" style="stroke-width: 4.229280000000001; stroke: black; opacity: 0.35;"/>
              <circle cx="96.27042253521128" cy="32.55013252173913" r="4.229280000000001" style="stroke-width: 4.229280000000001; stroke: black; opacity: 0.35;"/>
              <circle cx="102.28732394366199" cy="52.981436869565215" r="4.229280000000001" style="stroke-width: 4.229280000000001; stroke: black; opacity: 0.35;"/>
              <circle cx="108.3042253521127" cy="63.19708904347826" r="4.229280000000001" style="stroke-width: 4.229280000000001; stroke: black; opacity: 0.35;"/>
              <circle cx="114.3211267605634" cy="83.62839339130437" r="4.229280000000001" style="stroke-width: 4.229280000000001; stroke: black; opacity: 0.35;"/>
              <circle cx="120.33802816901411" cy="104.05969773913046" r="4.229280000000001" style="stroke-width: 4.229280000000001; stroke: black; opacity: 0.35;"/>
              <circle cx="126.3549295774648" cy="114.2753499130435" r="4.229280000000001" style="stroke-width: 4.229280000000001; stroke: black; opacity: 0.35;"/>
              <circle cx="132.37183098591552" cy="124.49100208695654" r="4.229280000000001" style="stroke-width: 4.229280000000001; stroke: black; opacity: 0.35;"/>
              <circle cx="138.38873239436623" cy="134.70665426086958" r="4.229280000000001" style="stroke-width: 4.229280000000001; stroke: black; opacity: 0.35;"/>
              <circle cx="144.4056338028169" cy="144.92230643478263" r="4.229280000000001" style="stroke-width: 4.229280000000001; stroke: black; opacity: 0.35;"/>
              <circle cx="150.42253521126761" cy="134.70665426086958" r="4.229280000000001" style="stroke-width: 4.229280000000001; stroke: black; opacity: 0.35;"/>
              <circle cx="156.43943661971832" cy="114.2753499130435" r="4.229280000000001" style="stroke-width: 4.229280000000001; stroke: black; opacity: 0.35;"/>
              <circle cx="162.45633802816903" cy="83.62839339130437" r="4.229280000000001" style="stroke-width: 4.229280000000001; stroke: black; opacity: 0.35;"/>
              <circle cx="168.47323943661974" cy="52.981436869565215" r="4.229280000000001" style="stroke-width: 4.229280000000001; stroke: black; opacity: 0.35;"/>
              <circle cx="174.49014084507044" cy="32.55013252173913" r="4.229280000000001" style="stroke-width: 4.229280000000001; stroke: black; opacity: 0.35;"/>
              <circle cx="180.50704225352115" cy="22.334480347826087" r="4.229280000000001" style="stroke-width: 4.229280000000001; stroke: black; opacity: 0.35;"/>
              <circle cx="186.52394366197186" cy="12.118828173913043" r="4.229280000000001" style="stroke-width: 4.229280000000001; stroke: black; opacity: 0.35;"/>
              <circle cx="192.54084507042256" cy="1.9031760000000004" r="4.229280000000001" style="stroke-width: 4.229280000000001; stroke: black; opacity: 0.35;"/>
              <circle cx="198.55774647887327" cy="12.118828173913043" r="4.229280000000001" style="stroke-width: 4.229280000000001; stroke: black; opacity: 0.35;"/>
              <circle cx="204.57464788732398" cy="22.334480347826087" r="4.229280000000001" style="stroke-width: 4.229280000000001; stroke: black; opacity: 0.35;"/>
              <circle cx="210.59154929577468" cy="32.55013252173913" r="4.229280000000001" style="stroke-width: 4.229280000000001; stroke: black; opacity: 0.35;"/>
              <circle cx="216.6084507042254" cy="42.76578469565217" r="4.229280000000001" style="stroke-width: 4.229280000000001; stroke: black; opacity: 0.35;"/>
              <circle cx="222.6253521126761" cy="32.55013252173913" r="4.229280000000001" style="stroke-width: 4.229280000000001; stroke: black; opacity: 0.35;"/>
              <circle cx="228.6422535211268" cy="42.76578469565217" r="4.229280000000001" style="stroke-width: 4.229280000000001; stroke: black; opacity: 0.35;"/>
              <circle cx="234.6591549295775" cy="52.981436869565215" r="4.229280000000001" style="stroke-width: 4.229280000000001; stroke: black; opacity: 0.35;"/>
              <circle cx="240.67605633802822" cy="73.41274121739133" r="4.229280000000001" style="stroke-width: 4.229280000000001; stroke: black; opacity: 0.35;"/>
              <circle cx="246.6929577464789" cy="83.62839339130437" r="4.229280000000001" style="stroke-width: 4.229280000000001; stroke: black; opacity: 0.35;"/>
              <circle cx="252.7098591549296" cy="93.84404556521741" r="4.229280000000001" style="stroke-width: 4.229280000000001; stroke: black; opacity: 0.35;"/>
              <circle cx="258.7267605633803" cy="83.62839339130437" r="4.229280000000001" style="stroke-width: 4.229280000000001; stroke: black; opacity: 0.35;"/>
              <circle cx="264.74366197183105" cy="63.19708904347826" r="4.229280000000001" style="stroke-width: 4.229280000000001; stroke: black; opacity: 0.35;"/>
              <circle cx="270.7605633802817" cy="52.981436869565215" r="4.229280000000001" style="stroke-width: 4.229280000000001; stroke: black; opacity: 0.35;"/>
              <circle cx="276.77746478873246" cy="42.76578469565217" r="4.229280000000001" style="stroke-width: 4.229280000000001; stroke: black; opacity: 0.35;"/>
              <circle cx="282.79436619718314" cy="32.55013252173913" r="4.229280000000001" style="stroke-width: 4.229280000000001; stroke: black; opacity: 0.35;"/>
              <circle cx="288.8112676056338" cy="42.76578469565217" r="4.229280000000001" style="stroke-width: 4.229280000000001; stroke: black; opacity: 0.35;"/>
              <circle cx="294.82816901408455" cy="52.981436869565215" r="4.229280000000001" style="stroke-width: 4.229280000000001; stroke: black; opacity: 0.35;"/>
              <circle cx="300.84507042253523" cy="63.19708904347826" r="4.229280000000001" style="stroke-width: 4.229280000000001; stroke: black; opacity: 0.35;"/>
              <circle cx="306.86197183098596" cy="83.62839339130437" r="4.229280000000001" style="stroke-width: 4.229280000000001; stroke: black; opacity: 0.35;"/>
              <circle cx="312.87887323943664" cy="93.84404556521741" r="4.229280000000001" style="stroke-width: 4.229280000000001; stroke: black; opacity: 0.35;"/>
              <circle cx="318.8957746478874" cy="104.05969773913046" r="4.229280000000001" style="stroke-width: 4.229280000000001; stroke: black; opacity: 0.35;"/>
              <circle cx="324.91267605633806" cy="114.2753499130435" r="4.229280000000001" style="stroke-width: 4.229280000000001; stroke: black; opacity: 0.35;"/>
              <circle cx="330.9295774647888" cy="124.49100208695654" r="4.229280000000001" style="stroke-width: 4.229280000000001; stroke: black; opacity: 0.35;"/>
              <circle cx="336.94647887323947" cy="134.70665426086958" r="4.229280000000001" style="stroke-width: 4.229280000000001; stroke: black; opacity: 0.35;"/>
              <circle cx="342.9633802816902" cy="155.13795860869567" r="4.229280000000001" style="stroke-width: 4.229280000000001; stroke: black; opacity: 0.35;"/>
              <circle cx="348.9802816901409" cy="165.35361078260874" r="4.229280000000001" style="stroke-width: 4.229280000000001; stroke: black; opacity: 0.35;"/>
              <circle cx="354.9971830985916" cy="175.56926295652178" r="4.229280000000001" style="stroke-width: 4.229280000000001; stroke: black; opacity: 0.35;"/>
              <circle cx="361.0140845070423" cy="185.78491513043483" r="4.229280000000001" style="stroke-width: 4.229280000000001; stroke: black; opacity: 0.35;"/>
              <circle cx="367.03098591549303" cy="175.56926295652178" r="4.229280000000001" style="stroke-width: 4.229280000000001; stroke: black; opacity: 0.35;"/>
              <circle cx="373.0478873239437" cy="155.13795860869567" r="4.229280000000001" style="stroke-width: 4.229280000000001; stroke: black; opacity: 0.35;"/>
              <circle cx="379.06478873239445" cy="134.70665426086958" r="4.229280000000001" style="stroke-width: 4.229280000000001; stroke: black; opacity: 0.35;"/>
              <circle cx="385.0816901408451" cy="114.2753499130435" r="4.229280000000001" style="stroke-width: 4.229280000000001; stroke: black; opacity: 0.35;"/>
              <circle cx="391.0985915492958" cy="83.62839339130437" r="4.229280000000001" style="stroke-width: 4.229280000000001; stroke: black; opacity: 0.35;"/>
              <circle cx="397.11549295774654" cy="63.19708904347826" r="4.229280000000001" style="stroke-width: 4.229280000000001; stroke: black; opacity: 0.35;"/>
              <circle cx="403.1323943661972" cy="42.76578469565217" r="4.229280000000001" style="stroke-width: 4.229280000000001; stroke: black; opacity: 0.35;"/>
              <circle cx="409.14929577464795" cy="22.334480347826087" r="4.229280000000001" style="stroke-width: 4.229280000000001; stroke: black; opacity: 0.35;"/>
              <circle cx="415.16619718309863" cy="12.118828173913043" r="4.229280000000001" style="stroke-width: 4.229280000000001; stroke: black; opacity: 0.35;"/>
              <circle cx="421.18309859154937" cy="22.334480347826087" r="4.229280000000001" style="stroke-width: 4.229280000000001; stroke: black; opacity: 0.35;"/>
              <circle cx="427.20000000000005" cy="32.55013252173913" r="4.229280000000001" style="stroke-width: 4.229280000000001; stroke: black; opacity: 0.35;"/>
            </g>
            <polyline points="0.0,0.0 6.016901408450705,10.215652173913043 12.03380281690141,20.431304347826085 18.050704225352113,30.646956521739128 24.06760563380282,40.86260869565217 30.084507042253527,51.07826086956521 36.10140845070423,71.50956521739133 42.118309859154934,81.72521739130437 48.13521126760564,102.15652173913045 54.15211267605635,112.3721739130435 60.169014084507054,102.15652173913045 66.18591549295776,81.72521739130437 72.20281690140845,61.293913043478256 78.21971830985916,51.07826086956521 84.23661971830987,30.646956521739128 90.25352112676057,20.431304347826085 96.27042253521128,30.646956521739128 102.28732394366199,51.07826086956521 108.3042253521127,61.293913043478256 114.3211267605634,81.72521739130437 120.33802816901411,102.15652173913045 126.3549295774648,112.3721739130435 132.37183098591552,122.58782608695654 138.38873239436623,132.80347826086958 144.4056338028169,143.01913043478262 150.42253521126761,132.80347826086958 156.43943661971832,112.3721739130435 162.45633802816903,81.72521739130437 168.47323943661974,51.07826086956521 174.49014084507044,30.646956521739128 180.50704225352115,20.431304347826085 186.52394366197186,10.215652173913043 192.54084507042256,0.0 198.55774647887327,10.215652173913043 204.57464788732398,20.431304347826085 210.59154929577468,30.646956521739128 216.6084507042254,40.86260869565217 222.6253521126761,30.646956521739128 228.6422535211268,40.86260869565217 234.6591549295775,51.07826086956521 240.67605633802822,71.50956521739133 246.6929577464789,81.72521739130437 252.7098591549296,91.94086956521741 258.7267605633803,81.72521739130437 264.74366197183105,61.293913043478256 270.7605633802817,51.07826086956521 276.77746478873246,40.86260869565217 282.79436619718314,30.646956521739128 288.8112676056338,40.86260869565217 294.82816901408455,51.07826086956521 300.84507042253523,61.293913043478256 306.86197183098596,81.72521739130437 312.87887323943664,91.94086956521741 318.8957746478874,102.15652173913045 324.91267605633806,112.3721739130435 330.9295774647888,122.58782608695654 336.94647887323947,132.80347826086958 342.9633802816902,153.23478260869567 348.9802816901409,163.45043478260874 354.9971830985916,173.66608695652178 361.0140845070423,183.88173913043482 367.03098591549303,173.66608695652178 373.0478873239437,153.23478260869567 379.06478873239445,132.80347826086958 385.0816901408451,112.3721739130435 391.0985915492958,81.72521739130437 397.11549295774654,61.293913043478256 403.1323943661972,40.86260869565217 409.14929577464795,20.431304347826085 415.16619718309863,10.215652173913043 421.18309859154937,20.431304347826085 427.20000000000005,30.646956521739128" fill="none" stroke="#6886B4" stroke-width="4.229280000000001"/>
            <circle cx="0.0" cy="0.0" r="4.229280000000001" style="stroke-width: 4.229280000000001; stroke: #6886B4; fill: #6886B4"/>
            <circle cx="6.016901408450705" cy="10.215652173913043" r="4.229280000000001" style="stroke-width: 4.229280000000001; stroke: #6886B4; fill: #6886B4"/>
            <circle cx="12.03380281690141" cy="20.431304347826085" r="4.229280000000001" style="stroke-width: 4.229280000000001; stroke: #6886B4; fill: #6886B4"/>
            <circle cx="18.050704225352113" cy="30.646956521739128" r="4.229280000000001" style="stroke-width: 4.229280000000001; stroke: #6886B4; fill: #6886B4"/>
            <circle cx="24.06760563380282" cy="40.86260869565217" r="4.229280000000001" style="stroke-width: 4.229280000000001; stroke: #6886B4; fill: #6886B4"/>
            <circle cx="30.084507042253527" cy="51.07826086956521" r="4.229280000000001" style="stroke-width: 4.229280000000001; stroke: #6886B4; fill: #6886B4"/>
            <circle cx="36.10140845070423" cy="71.50956521739133" r="4.229280000000001" style="stroke-width: 4.229280000000001; stroke: #6886B4; fill: #6886B4"/>
            <circle cx="42.118309859154934" cy="81.72521739130437" r="4.229280000000001" style="stroke-width: 4.229280000000001; stroke: #6886B4; fill: #6886B4"/>
            <circle cx="48.13521126760564" cy="102.15652173913045" r="4.229280000000001" style="stroke-width: 4.229280000000001; stroke: #6886B4; fill: #6886B4"/>
            <circle cx="54.15211267605635" cy="112.3721739130435" r="4.229280000000001" style="stroke-width: 4.229280000000001; stroke: #6886B4; fill: #6886B4"/>
            <circle cx="60.169014084507054" cy="102.15652173913045" r="4.229280000000001" style="stroke-width: 4.229280000000001; stroke: #6886B4; fill: #6886B4"/>
            <circle cx="66.18591549295776" cy="81.72521739130437" r="4.229280000000001" style="stroke-width: 4.229280000000001; stroke: #6886B4; fill: #6886B4"/>
            <circle cx="72.20281690140845" cy="61.293913043478256" r="4.229280000000001" style="stroke-width: 4.229280000000001; stroke: #6886B4; fill: #6886B4"/>
            <circle cx="78.21971830985916" cy="51.07826086956521" r="4.229280000000001" style="stroke-width: 4.229280000000001; stroke: #6886B4; fill: #6886B4"/>
            <circle cx="84.23661971830987" cy="30.646956521739128" r="4.229280000000001" style="stroke-width: 4.229280000000001; stroke: #6886B4; fill: #6886B4"/>
            <circle cx="90.25352112676057" cy="20.431304347826085" r="4.229280000000001" style="stroke-width: 4.229280000000001; stroke: #6886B4; fill: #6886B4"/>
            <circle cx="96.27042253521128" cy="30.646956521739128" r="4.229280000000001" style="stroke-width: 4.229280000000001; stroke: #6886B4; fill: #6886B4"/>
            <circle cx="102.28732394366199" cy="51.07826086956521" r="4.229280000000001" style="stroke-width: 4.229280000000001; stroke: #6886B4; fill: #6886B4"/>
            <circle cx="108.3042253521127" cy="61.293913043478256" r="4.229280000000001" style="stroke-width: 4.229280000000001; stroke: #6886B4; fill: #6886B4"/>
            <circle cx="114.3211267605634" cy="81.72521739130437" r="4.229280000000001" style="stroke-width: 4.229280000000001; stroke: #6886B4; fill: #6886B4"/>
            <circle cx="120.33802816901411" cy="102.15652173913045" r="4.229280000000001" style="stroke-width: 4.229280000000001; stroke: #6886B4; fill: #6886B4"/>
            <circle cx="126.3549295774648" cy="112.3721739130435" r="4.229280000000001" style="stroke-width: 4.229280000000001; stroke: #6886B4; fill: #6886B4"/>
            <circle cx="132.37183098591552" cy="122.58782608695654" r="4.229280000000001" style="stroke-width: 4.229280000000001; stroke: #6886B4; fill: #6886B4"/>
            <circle cx="138.38873239436623" cy="132.80347826086958" r="4.229280000000001" style="stroke-width: 4.229280000000001; stroke: #6886B4; fill: #6886B4"/>
            <circle cx="144.4056338028169" cy="143.01913043478262" r="4.229280000000001" style="stroke-width: 4.229280000000001; stroke: #6886B4; fill: #6886B4"/>
            <circle cx="150.42253521126761" cy="132.80347826086958" r="4.229280000000001" style="stroke-width: 4.229280000000001; stroke: #6886B4; fill: #6886B4"/>
            <circle cx="156.43943661971832" cy="112.3721739130435" r="4.229280000000001" style="stroke-width: 4.229280000000001; stroke: #6886B4; fill: #6886B4"/>
            <circle cx="162.45633802816903" cy="81.72521739130437" r="4.229280000000001" style="stroke-width: 4.229280000000001; stroke: #6886B4; fill: #6886B4"/>
            <circle cx="168.47323943661974" cy="51.07826086956521" r="4.229280000000001" style="stroke-width: 4.229280000000001; stroke: #6886B4; fill: #6886B4"/>
            <circle cx="174.49014084507044" cy="30.646956521739128" r="4.229280000000001" style="stroke-width: 4.229280000000001; stroke: #6886B4; fill: #6886B4"/>
            <circle cx="180.50704225352115" cy="20.431304347826085" r="4.229280000000001" style="stroke-width: 4.229280000000001; stroke: #6886B4; fill: #6886B4"/>
            <circle cx="186.52394366197186" cy="10.215652173913043" r="4.229280000000001" style="stroke-width: 4.229280000000001; stroke: #6886B4; fill: #6886B4"/>
            <circle cx="192.54084507042256" cy="0.0" r="4.229280000000001" style="stroke-width: 4.229280000000001; stroke: #6886B4; fill: #6886B4"/>
            <circle cx="198.55774647887327" cy="10.215652173913043" r="4.229280000000001" style="stroke-width: 4.229280000000001; stroke: #6886B4; fill: #6886B4"/>
            <circle cx="204.57464788732398" cy="20.431304347826085" r="4.229280000000001" style="stroke-width: 4.229280000000001; stroke: #6886B4; fill: #6886B4"/>
            <circle cx="210.59154929577468" cy="30.646956521739128" r="4.229280000000001" style="stroke-width: 4.229280000000001; stroke: #6886B4; fill: #6886B4"/>
            <circle cx="216.6084507042254" cy="40.86260869565217" r="4.229280000000001" style="stroke-width: 4.229280000000001; stroke: #6886B4; fill: #6886B4"/>
            <circle cx="222.6253521126761" cy="30.646956521739128" r="4.229280000000001" style="stroke-width: 4.229280000000001; stroke: #6886B4; fill: #6886B4"/>
            <circle cx="228.6422535211268" cy="40.86260869565217" r="4.229280000000001" style="stroke-width: 4.229280000000001; stroke: #6886B4; fill: #6886B4"/>
            <circle cx="234.6591549295775" cy="51.07826086956521" r="4.229280000000001" style="stroke-width: 4.229280000000001; stroke: #6886B4; fill: #6886B4"/>
            <circle cx="240.67605633802822" cy="71.50956521739133" r="4.229280000000001" style="stroke-width: 4.229280000000001; stroke: #6886B4; fill: #6886B4"/>
            <circle cx="246.6929577464789" cy="81.72521739130437" r="4.229280000000001" style="stroke-width: 4.229280000000001; stroke: #6886B4; fill: #6886B4"/>
            <circle cx="252.7098591549296" cy="91.94086956521741" r="4.229280000000001" style="stroke-width: 4.229280000000001; stroke: #6886B4; fill: #6886B4"/>
            <circle cx="258.7267605633803" cy="81.72521739130437" r="4.229280000000001" style="stroke-width: 4.229280000000001; stroke: #6886B4; fill: #6886B4"/>
            <circle cx="264.74366197183105" cy="61.293913043478256" r="4.229280000000001" style="stroke-width: 4.229280000000001; stroke: #6886B4; fill: #6886B4"/>
            <circle cx="270.7605633802817" cy="51.07826086956521" r="4.229280000000001" style="stroke-width: 4.229280000000001; stroke: #6886B4; fill: #6886B4"/>
            <circle cx="276.77746478873246" cy="40.86260869565217" r="4.229280000000001" style="stroke-width: 4.229280000000001; stroke: #6886B4; fill: #6886B4"/>
            <circle cx="282.79436619718314" cy="30.646956521739128" r="4.229280000000001" style="stroke-width: 4.229280000000001; stroke: #6886B4; fill: #6886B4"/>
            <circle cx="288.8112676056338" cy="40.86260869565217" r="4.229280000000001" style="stroke-width: 4.229280000000001; stroke: #6886B4; fill: #6886B4"/>
            <circle cx="294.82816901408455" cy="51.07826086956521" r="4.229280000000001" style="stroke-width: 4.229280000000001; stroke: #6886B4; fill: #6886B4"/>
            <circle cx="300.84507042253523" cy="61.293913043478256" r="4.229280000000001" style="stroke-width: 4.229280000000001; stroke: #6886B4; fill: #6886B4"/>
            <circle cx="306.86197183098596" cy="81.72521739130437" r="4.229280000000001" style="stroke-width: 4.229280000000001; stroke: #6886B4; fill: #6886B4"/>
            <circle cx="312.87887323943664" cy="91.94086956521741" r="4.229280000000001" style="stroke-width: 4.229280000000001; stroke: #6886B4; fill: #6886B4"/>
            <circle cx="318.8957746478874" cy="102.15652173913045" r="4.229280000000001" style="stroke-width: 4.229280000000001; stroke: #6886B4; fill: #6886B4"/>
            <circle cx="324.91267605633806" cy="112.3721739130435" r="4.229280000000001" style="stroke-width: 4.229280000000001; stroke: #6886B4; fill: #6886B4"/>
            <circle cx="330.9295774647888" cy="122.58782608695654" r="4.229280000000001" style="stroke-width: 4.229280000000001; stroke: #6886B4; fill: #6886B4"/>
            <circle cx="336.94647887323947" cy="132.80347826086958" r="4.229280000000001" style="stroke-width: 4.229280000000001; stroke: #6886B4; fill: #6886B4"/>
            <circle cx="342.9633802816902" cy="153.23478260869567" r="4.229280000000001" style="stroke-width: 4.229280000000001; stroke: #6886B4; fill: #6886B4"/>
            <circle cx="348.9802816901409" cy="163.45043478260874" r="4.229280000000001" style="stroke-width: 4.229280000000001; stroke: #6886B4; fill: #6886B4"/>
            <circle cx="354.9971830985916" cy="173.66608695652178" r="4.229280000000001" style="stroke-width: 4.229280000000001; stroke: #6886B4; fill: #6886B4"/>
            <circle cx="361.0140845070423" cy="183.88173913043482" r="4.229280000000001" style="stroke-width: 4.229280000000001; stroke: #6886B4; fill: #6886B4"/>
            <circle cx="367.03098591549303" cy="173.66608695652178" r="4.229280000000001" style="stroke-width: 4.229280000000001; stroke: #6886B4; fill: #6886B4"/>
            <circle cx="373.0478873239437" cy="153.23478260869567" r="4.229280000000001" style="stroke-width: 4.229280000000001; stroke: #6886B4; fill: #6886B4"/>
            <circle cx="379.06478873239445" cy="132.80347826086958" r="4.229280000000001" style="stroke-width: 4.229280000000001; stroke: #6886B4; fill: #6886B4"/>
            <circle cx="385.0816901408451" cy="112.3721739130435" r="4.229280000000001" style="stroke-width: 4.229280000000001; stroke: #6886B4; fill: #6886B4"/>
            <circle cx="391.0985915492958" cy="81.72521739130437" r="4.229280000000001" style="stroke-width: 4.229280000000001; stroke: #6886B4; fill: #6886B4"/>
            <circle cx="397.11549295774654" cy="61.293913043478256" r="4.229280000000001" style="stroke-width: 4.229280000000001; stroke: #6886B4; fill: #6886B4"/>
            <circle cx="403.1323943661972" cy="40.86260869565217" r="4.229280000000001" style="stroke-width: 4.229280000000001; stroke: #6886B4; fill: #6886B4"/>
            <circle cx="409.14929577464795" cy="20.431304347826085" r="4.229280000000001" style="stroke-width: 4.229280000000001; stroke: #6886B4; fill: #6886B4"/>
            <circle cx="415.16619718309863" cy="10.215652173913043" r="4.229280000000001" style="stroke-width: 4.229280000000001; stroke: #6886B4; fill: #6886B4"/>
            <circle cx="421.18309859154937" cy="20.431304347826085" r="4.229280000000001" style="stroke-width: 4.229280000000001; stroke: #6886B4; fill: #6886B4"/>
            <circle cx="427.20000000000005" cy="30.646956521739128" r="4.229280000000001" style="stroke-width: 4.229280000000001; stroke: #6886B4; fill: #6886B4"/>
          </g>
        </g>
      </g>
    </g>
    <g id="legend" transform="translate(30.0, 46.800000000000004)">
      <rect x="264.6" y="0" width="10.799999999999999" height="10.799999999999999" fill="#6886B4"/>
      <text x="284.04" y="11.663999999999998" font-size="15.551999999999998" font-family="" style="color: white" fill="white"></text>
    </g>
  </g>
</svg>
